<svg width="25" height="22" viewBox="0 0 25 22" fill="none" xmlns="http://www.w3.org/2000/svg">
<g opacity="0.8" clip-path="url(#clip0_8_22)">
<path d="M12.5 22C12.5 22 21.875 14.1818 21.875 8.25C21.875 6.06196 20.8873 3.96354 19.1291 2.41637C17.371 0.869194 14.9864 0 12.5 0C10.0136 0 7.62903 0.869194 5.87087 2.41637C4.11272 3.96354 3.125 6.06196 3.125 8.25C3.125 14.1818 12.5 22 12.5 22ZM12.5 12.375C11.2568 12.375 10.0645 11.9404 9.18544 11.1668C8.30636 10.3932 7.8125 9.34402 7.8125 8.25C7.8125 7.15598 8.30636 6.10677 9.18544 5.33318C10.0645 4.5596 11.2568 4.125 12.5 4.125C13.7432 4.125 14.9355 4.5596 15.8146 5.33318C16.6936 6.10677 17.1875 7.15598 17.1875 8.25C17.1875 9.34402 16.6936 10.3932 15.8146 11.1668C14.9355 11.9404 13.7432 12.375 12.5 12.375Z" fill="white"/>
</g>
<defs>
<clipPath id="clip0_8_22">
<rect width="25" height="22" fill="white"/>
</clipPath>
</defs>
</svg>
