<svg width="30" height="32" viewBox="0 0 30 32" fill="none" xmlns="http://www.w3.org/2000/svg">
<path d="M15 13.3333C13.6739 13.3333 12.4021 12.8065 11.4645 11.8689C10.5268 10.9312 10 9.65945 10 8.33337C10 7.00729 10.5268 5.73552 11.4645 4.79783C12.4021 3.86015 13.6739 3.33337 15 3.33337C16.3261 3.33337 17.5979 3.86015 18.5355 4.79783C19.4732 5.73552 20 7.00729 20 8.33337C20 9.65945 19.4732 10.9312 18.5355 11.8689C17.5979 12.8065 16.3261 13.3333 15 13.3333Z" stroke="#E8E8E8" stroke-width="2.5" stroke-linecap="round" stroke-linejoin="round"/>
<path d="M3.75 28.3333C3.75 26.856 4.04099 25.3931 4.60635 24.0281C5.17172 22.6632 6.00039 21.423 7.04505 20.3784C8.08971 19.3337 9.3299 18.505 10.6948 17.9397C12.0597 17.3743 13.5226 17.0833 15 17.0833C16.4774 17.0833 17.9403 17.3743 19.3052 17.9397C20.6701 18.505 21.9103 19.3337 22.955 20.3784C23.9996 21.423 24.8283 22.6632 25.3936 24.0281C25.959 25.3931 26.25 26.856 26.25 28.3333" stroke="#E8E8E8" stroke-width="2.5" stroke-linecap="round" stroke-linejoin="round"/>
</svg>
