<svg width="63" height="63" viewBox="0 0 63 63" fill="none" xmlns="http://www.w3.org/2000/svg">
<path fill-rule="evenodd" clip-rule="evenodd" d="M0 19.6875C0 17.5989 0.829685 15.5959 2.30653 14.119C3.78338 12.6422 5.78642 11.8125 7.875 11.8125H37.4062C39.3163 11.8123 41.1613 12.5063 42.5978 13.7652C44.0342 15.0242 44.9641 16.7623 45.2143 18.6559L57.4599 13.2142C58.0593 12.9472 58.716 12.8341 59.3702 12.8854C60.0244 12.9367 60.6554 13.1506 61.2058 13.5078C61.7563 13.865 62.2088 14.3541 62.5221 14.9307C62.8354 15.5073 62.9997 16.153 63 16.8092V46.1908C62.9994 46.8465 62.8351 47.4917 62.522 48.0678C62.2089 48.6438 61.7568 49.1326 61.2069 49.4897C60.657 49.8468 60.0266 50.0609 59.3729 50.1126C58.7193 50.1643 58.0631 50.052 57.4639 49.7858L45.2143 44.3441C44.9641 46.2377 44.0342 47.9758 42.5978 49.2348C41.1613 50.4937 39.3163 51.1877 37.4062 51.1875H7.875C5.78642 51.1875 3.78338 50.3578 2.30653 48.881C0.829685 47.4041 0 45.4011 0 43.3125V19.6875Z" fill="#030918"/>
</svg>
