<svg width="49" height="49" viewBox="0 0 49 49" fill="none" xmlns="http://www.w3.org/2000/svg">
<path d="M49 24.5C49 36.3396 38.0301 45.9375 24.5 45.9375C22.0734 45.9408 19.6569 45.6257 17.3123 45.0004C15.5238 45.9069 11.417 47.6464 4.508 48.7795C3.8955 48.8775 3.43 48.2405 3.67194 47.6709C4.75606 45.1106 5.73606 41.699 6.03006 38.5875C2.2785 34.8206 0 29.89 0 24.5C0 12.6604 10.9699 3.0625 24.5 3.0625C38.0301 3.0625 49 12.6604 49 24.5ZM13.7812 15.3125C13.3751 15.3125 12.9857 15.4738 12.6985 15.761C12.4113 16.0482 12.25 16.4376 12.25 16.8437C12.25 17.2499 12.4113 17.6393 12.6985 17.9265C12.9857 18.2137 13.3751 18.375 13.7812 18.375H35.2188C35.6249 18.375 36.0143 18.2137 36.3015 17.9265C36.5887 17.6393 36.75 17.2499 36.75 16.8437C36.75 16.4376 36.5887 16.0482 36.3015 15.761C36.0143 15.4738 35.6249 15.3125 35.2188 15.3125H13.7812ZM13.7812 22.9687C13.3751 22.9687 12.9857 23.1301 12.6985 23.4172C12.4113 23.7044 12.25 24.0939 12.25 24.5C12.25 24.9061 12.4113 25.2956 12.6985 25.5828C12.9857 25.8699 13.3751 26.0312 13.7812 26.0312H35.2188C35.6249 26.0312 36.0143 25.8699 36.3015 25.5828C36.5887 25.2956 36.75 24.9061 36.75 24.5C36.75 24.0939 36.5887 23.7044 36.3015 23.4172C36.0143 23.1301 35.6249 22.9687 35.2188 22.9687H13.7812ZM13.7812 30.625C13.3751 30.625 12.9857 30.7863 12.6985 31.0735C12.4113 31.3607 12.25 31.7501 12.25 32.1562C12.25 32.5624 12.4113 32.9518 12.6985 33.239C12.9857 33.5262 13.3751 33.6875 13.7812 33.6875H26.0312C26.4374 33.6875 26.8268 33.5262 27.114 33.239C27.4012 32.9518 27.5625 32.5624 27.5625 32.1562C27.5625 31.7501 27.4012 31.3607 27.114 31.0735C26.8268 30.7863 26.4374 30.625 26.0312 30.625H13.7812Z" fill="white"/>
</svg>
