<svg width="51" height="51" viewBox="0 0 51 51" fill="none" xmlns="http://www.w3.org/2000/svg">
<g clip-path="url(#clip0_8_66)">
<path d="M9.58254e-06 7.96875C9.58254e-06 6.70068 0.503747 5.48455 1.40041 4.5879C2.29706 3.69124 3.51319 3.1875 4.78126 3.1875H39.8438C41.1118 3.1875 42.328 3.69124 43.2246 4.5879C44.1213 5.48455 44.625 6.70068 44.625 7.96875V41.5267C44.625 42.483 44.4656 43.6114 43.8664 44.625H46.2188C46.6414 44.625 47.0468 44.4571 47.3457 44.1582C47.6446 43.8593 47.8125 43.4539 47.8125 43.0312V14.3438C47.8125 13.9211 47.9804 13.5157 48.2793 13.2168C48.5782 12.9179 48.9836 12.75 49.4063 12.75C49.8289 12.75 50.2343 12.9179 50.5332 13.2168C50.8321 13.5157 51 13.9211 51 14.3438V43.0312C51 44.2993 50.4963 45.5154 49.5996 46.4121C48.703 47.3088 47.4868 47.8125 46.2188 47.8125H4.7717C4.14426 47.8125 3.52299 47.6888 2.94344 47.4484C2.36389 47.208 1.83744 46.8556 1.39422 46.4115C0.951002 45.9674 0.599721 45.4403 0.360484 44.8602C0.121248 44.2802 -0.0012478 43.6587 9.58254e-06 43.0312V7.96875ZM38.25 44.625C39.4294 44.625 40.3346 43.9524 40.9689 43.2193C41.2622 42.8814 41.4375 42.33 41.4375 41.5267V7.96875C41.4375 7.54606 41.2696 7.14069 40.9707 6.8418C40.6718 6.54291 40.2664 6.375 39.8438 6.375H4.78126C4.35857 6.375 3.95319 6.54291 3.65431 6.8418C3.35542 7.14069 3.18751 7.54606 3.18751 7.96875V43.0312C3.18751 43.9174 3.89832 44.625 4.7717 44.625H38.25Z" fill="white"/>
<path d="M6.37501 9.5625H38.25V15.9375H6.37501V9.5625ZM6.37501 19.125H19.125V28.6875H6.37501V19.125ZM6.37501 31.875H19.125V35.0625H6.37501V31.875ZM6.37501 38.25H19.125V41.4375H6.37501V38.25ZM22.3125 19.125H28.6875V22.3125H22.3125V19.125ZM31.875 19.125H38.25V22.3125H31.875V19.125ZM22.3125 25.5H28.6875V28.6875H22.3125V25.5ZM31.875 25.5H38.25V28.6875H31.875V25.5ZM22.3125 31.875H28.6875V35.0625H22.3125V31.875ZM31.875 31.875H38.25V35.0625H31.875V31.875ZM22.3125 38.25H28.6875V41.4375H22.3125V38.25ZM31.875 38.25H38.25V41.4375H31.875V38.25Z" fill="white"/>
</g>
<defs>
<clipPath id="clip0_8_66">
<rect width="51" height="51" fill="white"/>
</clipPath>
</defs>
</svg>
