<svg width="18" height="18" viewBox="0 0 18 18" fill="none" xmlns="http://www.w3.org/2000/svg">
<g opacity="0.8" clip-path="url(#clip0_8_12)">
<path fill-rule="evenodd" clip-rule="evenodd" d="M2.12067 0.574828C2.31751 0.378277 2.55388 0.225806 2.81411 0.127516C3.07434 0.029227 3.35249 -0.0126354 3.63012 0.00470333C3.90776 0.0220421 4.17853 0.098186 4.42451 0.228089C4.67049 0.357992 4.88605 0.538688 5.05692 0.758203L7.07629 3.35245C7.44642 3.82833 7.57692 4.4482 7.43067 5.0332L6.81529 7.49695C6.78348 7.62456 6.78519 7.75823 6.82028 7.88498C6.85537 8.01172 6.92263 8.12725 7.01554 8.22033L9.77967 10.9845C9.87286 11.0775 9.98857 11.1449 10.1155 11.18C10.2425 11.2151 10.3764 11.2167 10.5042 11.1847L12.9668 10.5693C13.2555 10.4971 13.5568 10.4915 13.848 10.5529C14.1392 10.6143 14.4126 10.7411 14.6475 10.9237L17.2418 12.942C18.1744 13.6676 18.2599 15.0457 17.4252 15.8793L16.2619 17.0426C15.4294 17.8751 14.1852 18.2407 13.0253 17.8323C10.0566 16.7878 7.36122 15.0883 5.13904 12.8598C2.91074 10.638 1.21123 7.94297 0.166542 4.9747C-0.240708 3.81595 0.124917 2.57058 0.957417 1.73808L2.12067 0.574828ZM14.2268 0.726703C14.279 0.674319 14.3411 0.632758 14.4095 0.604401C14.4778 0.576044 14.5511 0.561447 14.625 0.561447C14.699 0.561447 14.7723 0.576044 14.8406 0.604401C14.909 0.632758 14.971 0.674319 15.0233 0.726703L17.8358 3.5392C17.8882 3.59145 17.9297 3.65353 17.9581 3.72186C17.9865 3.7902 18.001 3.86346 18.001 3.93745C18.001 4.01144 17.9865 4.0847 17.9581 4.15304C17.9297 4.22138 17.8882 4.28345 17.8358 4.3357L15.0233 7.1482C14.9177 7.25383 14.7744 7.31316 14.625 7.31316C14.4757 7.31316 14.3324 7.25383 14.2268 7.1482C14.1212 7.04258 14.0618 6.89933 14.0618 6.74995C14.0618 6.60058 14.1212 6.45732 14.2268 6.3517L16.0797 4.49995H10.6875C10.5384 4.49995 10.3953 4.44069 10.2898 4.3352C10.1843 4.22971 10.125 4.08664 10.125 3.93745C10.125 3.78827 10.1843 3.64519 10.2898 3.53971C10.3953 3.43422 10.5384 3.37495 10.6875 3.37495H16.0797L14.2268 1.5232C14.1744 1.47095 14.1328 1.40888 14.1045 1.34054C14.0761 1.2722 14.0615 1.19894 14.0615 1.12495C14.0615 1.05096 14.0761 0.977703 14.1045 0.909365C14.1328 0.841026 14.1744 0.778954 14.2268 0.726703Z" fill="white"/>
</g>
<defs>
<clipPath id="clip0_8_12">
<rect width="18" height="18" fill="white"/>
</clipPath>
</defs>
</svg>
